{
    "asset" : {
        "generator" : "Khronos glTF Blender I/O v0.9.4",
        "version" : "2.0"
    },
    "scene" : 0,
    "scenes" : [
        {
            "name" : "Scene",
            "nodes" : [
                0,
                1,
                2
            ]
        }
    ],
    "nodes" : [
        {
            "name" : "Light",
            "rotation" : [
                0.16907575726509094,
                0.7558803558349609,
                -0.27217137813568115,
                0.570947527885437
            ],
            "translation" : [
                4.076245307922363,
                5.903861999511719,
                -1.0054539442062378
            ]
        },
        {
            "name" : "Camera",
            "rotation" : [
                0.483536034822464,
                0.33687159419059753,
                -0.20870360732078552,
                0.7804827094078064
            ],
            "translation" : [
                7.358891487121582,
                4.958309173583984,
                6.925790786743164
            ]
        },
        {
            "mesh" : 0,
            "name" : "Text",
            "rotation" : [
                0.7071067690849304,
                0,
                0,
                0.7071067690849304
            ]
        }
    ],
    "materials" : [
        {
            "name" : "Material.001",
            "pbrMetallicRoughness" : {
                "baseColorFactor" : [
                    0.8000000715255737,
                    0.0028794181998819113,
                    0,
                    1
                ],
                "metallicFactor" : 0,
                "roughnessFactor" : 0.5
            }
        }
    ],
    "meshes" : [
        {
            "name" : "CUText",
            "primitives" : [
                {
                    "attributes" : {
                        "POSITION" : 0,
                        "NORMAL" : 1
                    },
                    "indices" : 2,
                    "material" : 0
                }
            ]
        }
    ],
    "accessors" : [
        {
            "bufferView" : 0,
            "componentType" : 5126,
            "count" : 1003,
            "max" : [
                2.314000129699707,
                0.14999999105930328,
                0
            ],
            "min" : [
                -2.261000394821167,
                -0.14999999105930328,
                -0.6860000491142273
            ],
            "type" : "VEC3"
        },
        {
            "bufferView" : 1,
            "componentType" : 5126,
            "count" : 1003,
            "type" : "VEC3"
        },
        {
            "bufferView" : 2,
            "componentType" : 5123,
            "count" : 2592,
            "type" : "SCALAR"
        }
    ],
    "bufferViews" : [
        {
            "buffer" : 0,
            "byteLength" : 12036,
            "byteOffset" : 0
        },
        {
            "buffer" : 0,
            "byteLength" : 12036,
            "byteOffset" : 12036
        },
        {
            "buffer" : 0,
            "byteLength" : 5184,
            "byteOffset" : 24072
        }
    ],
    "buffers" : [
        {
            "byteLength" : 29256,
            "uri" : "data:application/octet-stream;base64,"
        }
    ]
}
